<?xml version="1.0" standalone="no"?><!DOCTYPE svg PUBLIC "-//W3C//DTD SVG 1.1//EN" "http://www.w3.org/Graphics/SVG/1.1/DTD/svg11.dtd"><svg t="1675068379558" class="icon" viewBox="0 0 1024 1024" version="1.1" xmlns="http://www.w3.org/2000/svg" p-id="1477" xmlns:xlink="http://www.w3.org/1999/xlink" width="200" height="200"><path d="M0 0m349.090909 0l325.818182 0q349.090909 0 349.090909 349.090909l0 325.818182q0 349.090909-349.090909 349.090909l-325.818182 0q-349.090909 0-349.090909-349.090909l0-325.818182q0-349.090909 349.090909-349.090909Z" fill="#3271FD" p-id="1478"></path><path d="M568.866909 269.323636h26.624v25.797819c0 28.474182 22.353455 51.584 49.92 51.584 27.578182 0 49.943273-23.109818 49.943273-51.595637v-25.786182h41.588363c13.800727 0 24.971636 11.554909 24.971637 25.797819v278.958545a112.989091 112.989091 0 0 0-38.213818-6.609455c-61.509818 0-111.383273 48.965818-111.383273 109.381819 0 38.050909 19.781818 71.563636 49.803636 91.147636H304.232727C290.443636 768 279.272727 756.445091 279.272727 742.202182V295.121455c0-14.242909 11.170909-25.797818 24.971637-25.797819h41.6v25.797819c0 28.474182 22.341818 51.584 49.92 51.584 27.589818 0 49.931636-23.109818 49.931636-51.584v-25.797819h26.635636c0 0.058182 1.28 0.093091 3.642182 0.116364h6.632727c7.563636-0.034909 18.827636-0.104727 32.046546-0.116364h5.934545c27.578182 0 48.279273-0.605091 48.279273 0z m146.013091 348.741819v65.617454h65.675636a65.617455 65.617455 0 0 1-65.664 65.617455 65.617455 65.617455 0 1 1-0.011636-131.246546z m13.149091-19.688728C769.396364 598.376727 802.909091 630.690909 802.909091 670.557091h-74.891636z m-99.258182-72.529454H412.416a18.024727 18.024727 0 0 0 0 36.014545h216.354909c9.960727 0 18.036364-8.064 18.036364-18.001454 0-9.960727-8.075636-18.013091-18.036364-18.013091z m0-93.079273H412.416a18.024727 18.024727 0 0 0 0 36.014545h216.354909c9.960727 0 18.036364-8.052364 18.036364-18.001454s-8.075636-18.013091-18.036364-18.013091zM645.410909 221.090909c13.800727 0 24.971636 10.798545 24.971636 24.110546v48.197818c0 13.312-11.170909 24.110545-24.96 24.110545-13.800727 0-24.971636-10.798545-24.971636-24.110545v-48.197818c0-13.312 11.170909-24.110545 24.971636-24.110546z m-249.634909 0c13.789091 0 24.96 10.798545 24.96 24.110546v48.197818c0 13.312-11.170909 24.110545-24.96 24.110545-13.800727 0-24.971636-10.798545-24.971636-24.110545v-48.197818c0-13.312 11.170909-24.110545 24.971636-24.110546z" fill="#FFFFFF" p-id="1479"></path></svg>